<?xml version="1.0" encoding="UTF-8"?>
<svg width="22px" height="22px" viewBox="0 0 22 22" version="1.1" xmlns="http://www.w3.org/2000/svg" xmlns:xlink="http://www.w3.org/1999/xlink">
    <title>编组</title>
    <g id="钱包弹窗" stroke="none" stroke-width="1" fill="none" fill-rule="evenodd">
        <g id="交易完成提示" transform="translate(-1080.000000, -124.000000)">
            <g id="编组-12" transform="translate(1064.000000, 108.000000)">
                <g id="编组" transform="translate(16.000000, 16.000000)">
                    <rect id="矩形" x="0" y="0" width="22" height="22"></rect>
                    <path d="M11,1.83333333 C16.0625667,1.83333333 20.1666667,5.9373875 20.1666667,11 C20.1666667,16.0625667 16.0625667,20.1666667 11,20.1666667 C5.9373875,20.1666667 1.83333333,16.0625667 1.83333333,11 C1.83333333,5.9373875 5.9373875,1.83333333 11,1.83333333 Z M14.2407833,7.68291333 L9.70346667,12.220175 L7.75895083,10.27565 C7.40097417,9.91769167 6.8205775,9.91769167 6.46259167,10.27565 C6.104615,10.6336083 6.104615,11.2140417 6.46259167,11.572 L8.99050167,14.0998917 C9.38428333,14.4936917 10.0227417,14.4936917 10.4165417,14.0998917 L15.5371333,8.9792725 C15.8950917,8.62129583 15.8950917,8.04089 15.5371333,7.68291333 C15.179175,7.3249275 14.5987417,7.3249275 14.2407833,7.68291333 Z" id="形状" fill="#60D245" fill-rule="nonzero"></path>
                </g>
            </g>
        </g>
    </g>
</svg>