<?xml version="1.0" encoding="UTF-8"?>
<svg width="16px" height="16px" viewBox="0 0 16 16" version="1.1" xmlns="http://www.w3.org/2000/svg" xmlns:xlink="http://www.w3.org/1999/xlink">
    <title>编组</title>
    <g id="页面-1" stroke="none" stroke-width="1" fill="none" fill-rule="evenodd">
        <g id="合约地址检测结果" transform="translate(-642.000000, -331.000000)">
            <g id="编组-5" transform="translate(642.000000, 328.000000)">
                <g id="编组" transform="translate(0.000000, 3.000000)">
                    <path d="M16,0 L16,16 L0,16 L0,0 L16,0 Z M8.39566007,15.5052273 L8.38796013,15.5063421 L8.34058513,15.5300293 L8.3279194,15.5324979 L8.3279194,15.5324979 L8.31781013,15.5300293 L8.27043653,15.5063421 C8.26388193,15.5042441 8.25803287,15.5060157 8.2547614,15.5099383 L8.25202153,15.5172207 L8.24062733,15.8020731 L8.2439298,15.8156663 L8.25126987,15.8238093 L8.32031847,15.8731287 L8.33023273,15.8757423 L8.33023273,15.8757423 L8.3380768,15.8731287 L8.4071268,15.8238093 L8.4155292,15.8131155 L8.4155292,15.8131155 L8.41776847,15.8020731 L8.406374,15.5172207 C8.40504827,15.5104675 8.40067413,15.5061995 8.39566007,15.5052273 L8.39566007,15.5052273 Z M8.5722604,15.4301908 L8.56303233,15.4315381 L8.4398962,15.4931065 L8.4332548,15.4999368 L8.4332548,15.4999368 L8.43146287,15.5074076 L8.4433962,15.7937593 L8.44662327,15.8022785 L8.44662327,15.8022785 L8.45225733,15.8069954 L8.5862268,15.8688259 C8.59428567,15.8712666 8.60148887,15.8686583 8.60521907,15.8634843 L8.60788233,15.8541093 L8.58511847,15.4443554 C8.58352547,15.4363931 8.57827347,15.4313344 8.5722604,15.4301908 L8.5722604,15.4301908 Z M8.09536487,15.4315381 C8.08881187,15.4282617 8.08145087,15.4301737 8.077091,15.4350636 L8.0732782,15.4443554 L8.05051427,15.8541093 C8.0500882,15.8617759 8.0552066,15.8679068 8.0617654,15.8697117 L8.07217067,15.8688259 L8.2061404,15.8069954 L8.21243313,15.8016231 L8.21243313,15.8016231 L8.21500287,15.7937593 L8.226934,15.5074076 L8.22483,15.4990117 L8.22483,15.4990117 L8.21850207,15.4931065 L8.09536487,15.4315381 Z" id="MingCute"></path>
                    <path d="M8.46813333,1.46364 L13.1348,3.21364 C13.6552667,3.40878667 14,3.90628667 14,4.46208 L14,8.0372 C14,10.3098667 12.716,12.3874667 10.6832667,13.4038 L8.4472,14.5218 C8.16566667,14.6626 7.83433333,14.6626 7.5528,14.5218 L5.31672,13.4038 C3.28401333,12.3874667 2,10.3098667 2,8.0372 L2,4.46208 C2,3.90628667 2.34476667,3.40878667 2.86516667,3.21364 L7.53186667,1.46364 C7.83366667,1.35044667 8.16633333,1.35044667 8.46813333,1.46364 Z M8,2.71208 L3.33333333,4.46208 L3.33333333,8.0372 C3.33333333,9.8048 4.33201333,11.4207333 5.913,12.2112 L8,13.2547333 L10.087,12.2112 C11.668,11.4207333 12.6666667,9.8048 12.6666667,8.0372 L12.6666667,4.46208 L8,2.71208 Z M8,9.3334 C8.3682,9.3334 8.66666667,9.63186667 8.66666667,10.0000667 C8.66666667,10.3682667 8.3682,10.6667333 8,10.6667333 C7.6318,10.6667333 7.33333333,10.3682667 7.33333333,10.0000667 C7.33333333,9.63186667 7.6318,9.3334 8,9.3334 Z M8,4.66674 C8.3682,4.66674 8.66666667,4.96522 8.66666667,5.33340667 L8.66666667,8.00006667 C8.66666667,8.36826667 8.3682,8.66674 8,8.66674 C7.6318,8.66674 7.33333333,8.36826667 7.33333333,8.00006667 L7.33333333,5.33340667 C7.33333333,4.96522 7.6318,4.66674 8,4.66674 Z" id="形状" fill="#636B80" fill-rule="nonzero"></path>
                </g>
            </g>
        </g>
    </g>
</svg>