<?xml version="1.0" encoding="UTF-8"?>
<svg width="18px" height="18px" viewBox="0 0 18 18" version="1.1" xmlns="http://www.w3.org/2000/svg" xmlns:xlink="http://www.w3.org/1999/xlink">
    <title>关  闭</title>
    <g id="盲盒" stroke="none" stroke-width="1" fill="none" fill-rule="evenodd">
        <g id="弹窗" transform="translate(-1165.000000, -323.000000)" fill-rule="nonzero">
            <g id="编组-26" transform="translate(686.000000, 272.000000)">
                <g id="编组-12" transform="translate(468.000000, 40.000000)">
                    <g id="关--闭" transform="translate(11.000000, 11.000000)">
                        <rect id="矩形" fill="#000000" opacity="0" x="0" y="0" width="18" height="18"></rect>
                        <path d="M15.51024,3.73401 C15.78654,3.4578 15.78654,3.00231 15.51024,2.72601 L15.48045,2.69613 C15.20415,2.41992 14.74875,2.41992 14.47236,2.69613 L8.99946,8.17659 L3.52647,2.69613 C3.25017,2.41992 2.79468,2.41992 2.51847,2.69613 L2.48859,2.72601 C2.3525659,2.85841672 2.2758368,3.04018351 2.2758368,3.23001 C2.2758368,3.41983649 2.3525659,3.60160328 2.48859,3.73401 L7.96158,9.207 L2.48859,14.68008 C2.21238,14.95629 2.21238,15.41187 2.48859,15.68799 L2.51847,15.71787 C2.79468,15.99417 3.25017,15.99417 3.52647,15.71787 L8.99946,10.24488 L14.47236,15.71787 C14.74875,15.99417 15.20415,15.99417 15.48045,15.71787 L15.51024,15.68799 C15.78654,15.41187 15.78654,14.95629 15.51024,14.68008 L10.03734,9.207 L15.51024,3.73401 Z" id="路径" stroke="#FFFFFF" stroke-width="0.5" fill="#FFFFFF"></path>
                    </g>
                </g>
            </g>
        </g>
    </g>
</svg>