<?xml version="1.0" encoding="UTF-8"?>
<svg width="14px" height="14px" viewBox="0 0 14 14" version="1.1" xmlns="http://www.w3.org/2000/svg" xmlns:xlink="http://www.w3.org/1999/xlink">
    <title>编组</title>
    <g id="页面-1" stroke="none" stroke-width="1" fill="none" fill-rule="evenodd">
        <g id="合约地址检测结果备份" transform="translate(-798.000000, -647.000000)">
            <g id="编组-2" transform="translate(786.000000, 554.000000)">
                <g id="编组" transform="translate(12.000000, 93.000000)">
                    <rect id="矩形" x="0" y="0" width="14" height="14"></rect>
                    <path d="M10.09365,5.55573667 L11.9498167,7.41189167 C13.2027583,8.66483333 13.2027583,10.6962333 11.9498167,11.949175 C10.696875,13.2021167 8.665475,13.2021167 7.41253333,11.949175 L6.79385,11.3304333 C6.45213333,10.9887167 6.45213333,10.434725 6.79385,10.0930083 C7.13550833,9.75129167 7.68955833,9.75129167 8.031275,10.0930083 L8.64995833,10.71175 C9.21946667,11.2812583 10.1428833,11.2812583 10.7123917,10.71175 C11.2819,10.1421833 11.2819,9.218825 10.7123917,8.64931667 L8.856225,6.79315 C8.43336667,6.37029167 7.81538333,6.26144167 7.292075,6.46648333 C7.19800276,6.50335 7.11017872,6.54231667 7.02728921,6.58063519 L6.75699319,6.70694097 C6.39526049,6.87059911 6.11658903,6.94090489 5.76256917,6.58694167 C5.25384417,6.07821667 5.38585833,5.60852833 6.00623333,5.18067083 C7.2562,4.31863833 8.98158333,4.44365833 10.09365,5.55573667 Z M6.587525,2.04968167 L7.20626667,2.66840583 C7.547925,3.01011083 7.547925,3.56413167 7.20626667,3.9058425 C6.86455,4.2475475 6.3105,4.2475475 5.96878333,3.9058425 L5.35008833,3.28712417 C4.78056833,2.71760417 3.85720417,2.71760417 3.28769,3.28712417 C2.71817583,3.85663833 2.71817583,4.7800025 3.28769,5.34951667 L5.143845,7.20568333 C5.5666975,7.62854167 6.184675,7.73745 6.70798333,7.53235 C6.80205557,7.49548333 6.88987962,7.45654257 6.97276912,7.41824137 L7.24306514,7.29193255 C7.60479778,7.12823504 7.8834686,7.05793527 8.23748333,7.41195 C8.74620833,7.92061667 8.6142,8.39031667 7.993825,8.81819167 C6.74385833,9.68018333 5.01848667,9.555175 3.90640833,8.44310833 L2.05025333,6.58694167 C0.797323333,5.33402333 0.797323333,3.3026175 2.05025333,2.04968167 C3.30318333,0.796751667 5.33458917,0.796751667 6.587525,2.04968167 Z" id="形状" fill="#FFFFFF" fill-rule="nonzero"></path>
                </g>
            </g>
        </g>
    </g>
</svg>