<?xml version="1.0" encoding="UTF-8"?>
<svg width="22px" height="22px" viewBox="0 0 22 22" version="1.1" xmlns="http://www.w3.org/2000/svg" xmlns:xlink="http://www.w3.org/1999/xlink">
    <title>编组</title>
    <g id="页面-1" stroke="none" stroke-width="1" fill="none" fill-rule="evenodd">
        <g id="合约地址检测结果" transform="translate(-886.000000, -770.000000)">
            <g id="编组" transform="translate(886.000000, 770.000000)">
                <rect id="矩形" x="0" y="0" width="22" height="22" rx="11"></rect>
                <path d="M15.6666667,5 C16.3695939,5 16.9454452,5.54391822 16.9963429,6.23382506 L17,6.33333333 L17,13 C17,13.7029273 16.4561,14.2787785 15.7661774,14.3296763 L15.6666667,14.3333333 L14.3333333,14.3333333 L14.3333333,15.6666667 C14.3333333,16.3695939 13.7894333,16.9454452 13.0995107,16.9963429 L13,17 L6.33333333,17 C5.63042515,17 5.05455655,16.4561 5.00365715,15.7661774 L5,15.6666667 L5,9 C5,8.29709182 5.54391822,7.72122322 6.23382506,7.67032382 L6.33333333,7.66666667 L7.66666667,7.66666667 L7.66666667,6.33333333 C7.66666667,5.63042515 8.21058489,5.05455655 8.90049173,5.00365715 L9,5 L15.6666667,5 Z M13,9 L6.33333333,9 L6.33333333,15.6666667 L13,15.6666667 L13,9 Z M15.6666667,6.33333333 L9,6.33333333 L9,7.66666667 L13,7.66666667 L13.0995107,7.67032382 C13.7549372,7.71867825 14.2785783,8.24081738 14.3293038,8.89556631 L14.3333333,9 L14.3333333,13 L15.6666667,13 L15.6666667,6.33333333 Z" id="形状" fill="#575A61" fill-rule="nonzero"></path>
            </g>
        </g>
    </g>
</svg>