<?xml version="1.0" encoding="UTF-8"?>
<svg width="14px" height="14px" viewBox="0 0 14 14" version="1.1" xmlns="http://www.w3.org/2000/svg" xmlns:xlink="http://www.w3.org/1999/xlink">
    <title>编组</title>
    <g id="合约检测免费版" stroke="none" stroke-width="1" fill="none" fill-rule="evenodd">
        <g id="合约地址检测结果" transform="translate(-415.000000, -1338.000000)">
            <g id="编组-8备份-2" transform="translate(353.000000, 1125.000000)">
                <g id="编组-20" transform="translate(24.000000, 212.000000)">
                    <g id="编组" transform="translate(45.000000, 8.000000) rotate(90.000000) translate(-45.000000, -8.000000) translate(38.000000, 1.000000)">
                        <path d="M14,0 L14,14 L0,14 L0,0 L14,0 Z M7.34620256,13.5670739 L7.33946512,13.5680493 L7.29801199,13.5887756 L7.28692948,13.5909357 L7.28692948,13.5909357 L7.27808387,13.5887756 L7.23663197,13.5680493 C7.23089669,13.5662136 7.22577876,13.5677637 7.22291623,13.571196 L7.22051884,13.5775681 L7.21054892,13.826814 L7.21343858,13.838708 L7.21986113,13.8458331 L7.28027866,13.8889876 L7.28895364,13.8912745 L7.28895364,13.8912745 L7.2958172,13.8889876 L7.35623595,13.8458331 L7.36358805,13.8364761 L7.36358805,13.8364761 L7.36554741,13.826814 L7.35557725,13.5775681 C7.35441723,13.5716591 7.35058987,13.5679246 7.34620256,13.5670739 L7.34620256,13.5670739 Z M7.50072785,13.501417 L7.49265329,13.5025959 L7.38490918,13.5564682 L7.37909795,13.5624447 L7.37909795,13.5624447 L7.37753001,13.5689817 L7.38797168,13.8195394 L7.39079536,13.8269937 L7.39079536,13.8269937 L7.39572517,13.831121 L7.51294845,13.8852227 C7.51999996,13.8873583 7.52630276,13.885076 7.52956668,13.8805487 L7.53189704,13.8723456 L7.51197866,13.513811 C7.51058478,13.506844 7.50598928,13.5024176 7.50072785,13.501417 L7.50072785,13.501417 Z M7.08344426,13.5025959 C7.07771038,13.499729 7.07126951,13.501402 7.06745463,13.5056806 L7.06411842,13.513811 L7.04419998,13.8723456 C7.04382717,13.8790539 7.04830578,13.8844184 7.05404472,13.8859978 L7.06314933,13.8852227 L7.18037285,13.831121 L7.18587899,13.8264202 L7.18587899,13.8264202 L7.18812751,13.8195394 L7.19856725,13.5689816 L7.19672625,13.5616353 L7.19672625,13.5616353 L7.19118931,13.5564682 L7.08344426,13.5025959 Z" id="MingCute"></path>
                        <path d="M9.70316667,6.48440625 C9.98790625,6.76914583 9.98790625,7.23085417 9.70316667,7.51559375 L5.57834375,11.6404167 C5.29361875,11.9251563 4.83193958,11.9251563 4.54717812,11.6404167 C4.26242396,11.3556042 4.26242396,10.8939688 4.54717812,10.6091563 L8.15638542,7 L4.54717812,3.39080729 C4.26242396,3.10605313 4.26242396,2.64436667 4.54717812,2.3596125 C4.83193958,2.07485104 5.29361875,2.07485104 5.57834375,2.3596125 L9.70316667,6.48440625 Z" id="路径" fill="#3772FF" fill-rule="nonzero"></path>
                    </g>
                </g>
            </g>
        </g>
    </g>
</svg>