<?xml version="1.0" encoding="UTF-8"?>
<svg width="14px" height="14px" viewBox="0 0 14 14" version="1.1" xmlns="http://www.w3.org/2000/svg" xmlns:xlink="http://www.w3.org/1999/xlink">
    <title>编组</title>
    <g id="页面-1" stroke="none" stroke-width="1" fill="none" fill-rule="evenodd">
        <g id="合约地址检测结果备份" transform="translate(-798.000000, -607.000000)">
            <g id="编组-2" transform="translate(786.000000, 554.000000)">
                <g id="编组" transform="translate(12.000000, 53.000000)">
                    <rect id="矩形" x="0" y="0" width="14" height="14"></rect>
                    <path d="M11.6666667,1.75 C12.3110167,1.75 12.8333333,2.27233417 12.8333333,2.91666667 L12.8333333,11.0833333 C12.8333333,11.7276833 12.3110167,12.25 11.6666667,12.25 L2.33333333,12.25 C1.68900083,12.25 1.16666667,11.7276833 1.16666667,11.0833333 L1.16666667,2.91666667 C1.16666667,2.27233417 1.68900083,1.75 2.33333333,1.75 L11.6666667,1.75 Z M11.6666667,2.91666667 L2.33333333,2.91666667 L2.33333333,8.808625 L5.24696667,5.89499167 C5.53172667,5.61024917 5.9934,5.61024917 6.27818333,5.89499167 L8.6499,8.26676667 L9.371775,7.54495 C9.6565,7.26016667 10.1182083,7.26016667 10.4029333,7.54495 L11.6666667,8.808625 L11.6666667,2.91666667 Z M9.04166667,4.08333333 C9.5249,4.08333333 9.91666667,4.4750825 9.91666667,4.95833333 C9.91666667,5.44158417 9.5249,5.83333333 9.04166667,5.83333333 C8.55843333,5.83333333 8.16666667,5.44158417 8.16666667,4.95833333 C8.16666667,4.4750825 8.55843333,4.08333333 9.04166667,4.08333333 Z" id="形状" fill="#FFFFFF" fill-rule="nonzero"></path>
                </g>
            </g>
        </g>
    </g>
</svg>