<?xml version="1.0" encoding="UTF-8"?>
<svg width="18px" height="18px" viewBox="0 0 18 18" version="1.1" xmlns="http://www.w3.org/2000/svg" xmlns:xlink="http://www.w3.org/1999/xlink">
    <title>Web/0.icon/操作图标/搜索备份 2</title>
    <g id="页面-1" stroke="none" stroke-width="1" fill="none" fill-rule="evenodd">
        <g id="历史检测" transform="translate(-690.000000, -329.000000)" fill-rule="nonzero">
            <g id="编组-13" transform="translate(674.000000, 308.000000)">
                <g id="搜索" transform="translate(16.000000, 21.000000)">
                    <rect id="矩形" opacity="0.082962391" x="0" y="0" width="18" height="18"></rect>
                    <path d="M16.3023614,15.1199238 L13.0398614,11.8911738 C12.9723614,11.8236738 12.8936114,11.7786738 12.8036114,11.7561738 C13.7148614,10.6649238 14.2548614,9.28117378 14.2548614,7.77367378 C14.2548614,4.35367378 11.4873614,1.58617378 8.06736144,1.58617378 C4.64736144,1.58617378 1.87986144,4.35367378 1.87986144,7.77367378 C1.87986144,11.1936738 4.64736144,13.9611738 8.06736144,13.9611738 C9.57486144,13.9611738 10.9473614,13.4211738 12.0273614,12.5324238 C12.0611114,12.6111738 12.1061114,12.6899238 12.1736114,12.7574238 L15.4361114,15.9861738 C15.6836114,16.2224238 16.0661114,16.2224238 16.3136114,15.9861738 C16.5611114,15.7499238 16.5498614,15.3561738 16.3023614,15.1199238 Z M8.06736144,12.8361738 C5.26611144,12.8361738 3.00486144,10.5749238 3.00486144,7.77367378 C3.00486144,4.97242378 5.26611144,2.71117378 8.06736144,2.71117378 C10.8686114,2.71117378 13.1298614,4.97242378 13.1298614,7.77367378 C13.1298614,10.5749238 10.8686114,12.8361738 8.06736144,12.8361738 Z" id="形状" stroke="#B0B8BF" stroke-width="0.5625" fill="#B0B8BF"></path>
                </g>
            </g>
        </g>
    </g>
</svg>