<?xml version="1.0" encoding="UTF-8"?>
<svg width="14px" height="14px" viewBox="0 0 14 14" version="1.1" xmlns="http://www.w3.org/2000/svg" xmlns:xlink="http://www.w3.org/1999/xlink">
    <title>编组</title>
    <g id="页面-1" stroke="none" stroke-width="1" fill="none" fill-rule="evenodd">
        <g id="合约地址检测结果备份" transform="translate(-798.000000, -567.000000)">
            <g id="编组-2" transform="translate(786.000000, 554.000000)">
                <g id="编组" transform="translate(12.000000, 13.000000)">
                    <rect id="矩形" x="0" y="0" width="14" height="14"></rect>
                    <path d="M2.6796875,2.90721083 C2.895025,2.88211 3.10651833,2.97849417 3.22884333,3.15747833 C4.08948167,4.41678417 5.123195,4.9406525 6.27019167,5.05983917 C6.32648333,4.569145 6.4589,4.0843075 6.70780833,3.6574475 C7.07291667,3.03115167 7.66675,2.57006167 8.51503333,2.39968167 C9.68718333,2.16424833 10.5796833,2.58874 11.0975667,3.1086125 L12.1427833,2.91321917 C12.3660833,2.8714875 12.5932333,2.96312917 12.7250667,3.1480925 C12.8568417,3.33304778 12.869325,3.57770583 12.756975,3.77511167 L11.7539333,5.53799167 C11.8454,8.08214167 11.1384,9.85763333 9.63100833,11.0808833 C8.831375,11.729725 7.68716667,12.09775 6.43119167,12.2113833 C5.16539917,12.3258917 3.73458167,12.1874083 2.31222833,11.772075 C2.06269,11.6992167 1.89148167,11.470025 1.89240333,11.2100917 C1.89331917,10.9501 2.0661375,10.7221333 2.31618333,10.651025 C3.03147833,10.4476167 3.57590333,10.2717417 4.0680325,9.96461667 C3.36893083,9.59344167 2.8538125,9.108225 2.489235,8.55505 C1.98251083,7.78615833 1.79461333,6.92900833 1.75730917,6.15591667 C1.72001083,5.38290667 1.83171917,4.66694667 1.94937167,4.1502125 C2.01634417,3.85606083 2.09456917,3.56053833 2.2023925,3.27823417 C2.280705,3.0747675 2.46435583,2.9323175 2.6796875,2.90721083 Z" id="路径" fill="#FFFFFF" fill-rule="nonzero"></path>
                </g>
            </g>
        </g>
    </g>
</svg>