<?xml version="1.0" encoding="UTF-8"?>
<svg width="24px" height="24px" viewBox="0 0 24 24" version="1.1" xmlns="http://www.w3.org/2000/svg" xmlns:xlink="http://www.w3.org/1999/xlink">
    <title>编组</title>
    <defs>
        <linearGradient x1="75.5320925%" y1="0%" x2="75.5320925%" y2="100%" id="linearGradient-1">
            <stop stop-color="#8FA8FF" offset="0%"></stop>
            <stop stop-color="#0043E6" offset="100%"></stop>
        </linearGradient>
        <linearGradient x1="0%" y1="9.5%" x2="93.2412285%" y2="90.5%" id="linearGradient-2">
            <stop stop-color="#6496FF" offset="0%"></stop>
            <stop stop-color="#2262FB" offset="100%"></stop>
        </linearGradient>
    </defs>
    <g id="页面-1" stroke="none" stroke-width="1" fill="none" fill-rule="evenodd">
        <g id="文件检测1" transform="translate(-878.000000, -591.000000)">
            <g id="编组-14" transform="translate(563.000000, 327.000000)">
                <g id="编组-8" transform="translate(79.000000, 204.000000)">
                    <g id="编组-16" transform="translate(212.000000, 50.000000)">
                        <g id="编组" transform="translate(24.000000, 10.000000)">
                            <path d="M24,0 L24,24 L0,24 L0,0 L24,0 Z M12.5934901,23.257841 L12.5819402,23.2595131 L12.5108777,23.2950439 L12.4918791,23.2987469 L12.4918791,23.2987469 L12.4767152,23.2950439 L12.4056548,23.2595131 C12.3958229,23.2563662 12.3870493,23.2590235 12.3821421,23.2649074 L12.3780323,23.275831 L12.360941,23.7031097 L12.3658947,23.7234994 L12.3769048,23.7357139 L12.4804777,23.8096931 L12.4953491,23.8136134 L12.4953491,23.8136134 L12.5071152,23.8096931 L12.6106902,23.7357139 L12.6232938,23.7196733 L12.6232938,23.7196733 L12.6266527,23.7031097 L12.609561,23.275831 C12.6075724,23.2657013 12.6010112,23.2592993 12.5934901,23.257841 L12.5934901,23.257841 Z M12.8583906,23.1452862 L12.8445485,23.1473072 L12.6598443,23.2396597 L12.6498822,23.2499052 L12.6498822,23.2499052 L12.6471943,23.2611114 L12.6650943,23.6906389 L12.6699349,23.7034178 L12.6699349,23.7034178 L12.678386,23.7104931 L12.8793402,23.8032389 C12.8914285,23.8068999 12.9022333,23.8029875 12.9078286,23.7952264 L12.9118235,23.7811639 L12.8776777,23.1665331 C12.8752882,23.1545897 12.8674102,23.1470016 12.8583906,23.1452862 L12.8583906,23.1452862 Z M12.1430473,23.1473072 C12.1332178,23.1423925 12.1221763,23.1452606 12.1156365,23.1525954 L12.1099173,23.1665331 L12.0757714,23.7811639 C12.0751323,23.7926639 12.0828099,23.8018602 12.0926481,23.8045676 L12.108256,23.8032389 L12.3092106,23.7104931 L12.3186497,23.7024347 L12.3186497,23.7024347 L12.3225043,23.6906389 L12.340401,23.2611114 L12.337245,23.2485176 L12.337245,23.2485176 L12.3277531,23.2396597 L12.1430473,23.1473072 Z" id="MingCute"></path>
                            <path d="M0,12 L22.461238,12 C23.0135228,12 23.461238,12.4477153 23.461238,13 C23.461238,13.1399183 23.4318758,13.2782795 23.3750496,13.4061385 L20.6598461,19.5153462 C20.2585928,20.4181662 19.3632891,21 18.3753173,21 L2,21 C0.8954305,21 1.3527075e-16,20.1045695 0,19 L0,12 L0,12 Z" id="矩形" fill="url(#linearGradient-1)"></path>
                            <path d="M0,5 C0,3.89543 0.89543,3 2,3 L7.51938,3 C8.1269,3 8.7016,3.27618 9.0811,3.75061 L10.4806,5.5 L18,5.5 C19.1046,5.5 20,6.39543 20,7.5 L20,19 C20,20.1046 19.1046,21 18,21 L2,21 C0.89543,21 0,20.1046 0,19 L0,5 Z" id="形状" fill="url(#linearGradient-2)" fill-rule="nonzero"></path>
                            <path d="M9.13271645,10.2524979 C9.44548326,9.91583403 9.95263805,9.91583403 10.2654049,10.2524979 L11.9644375,12.0812054 C12.2772844,12.4178434 12.2772844,12.9637057 11.9644375,13.3003437 C11.6516707,13.6370679 11.1445159,13.6370679 10.8317491,13.3003437 L10.5,12.9432746 L10.5,16.1379308 C10.5,16.6140516 10.1414195,17 9.69906066,17 C9.25670186,17 8.89812132,16.6140516 8.89812132,16.1379308 L8.89812132,12.9432746 L8.56637224,13.3003437 C8.25360543,13.6370679 7.74645064,13.6370679 7.4336598,13.3003437 C7.12087696,12.9637057 7.12087696,12.4178434 7.4336598,12.0812054 L9.13271645,10.2524979 Z" id="形状-path" fill="#FFFFFF" fill-rule="nonzero"></path>
                        </g>
                    </g>
                </g>
            </g>
        </g>
    </g>
</svg>