<?xml version="1.0" encoding="UTF-8"?>
<svg width="24px" height="24px" viewBox="0 0 24 24" version="1.1" xmlns="http://www.w3.org/2000/svg" xmlns:xlink="http://www.w3.org/1999/xlink">
    <title>关  闭</title>
    <g id="钱包登陆页面" stroke="none" stroke-width="1" fill="none" fill-rule="evenodd">
        <g id="连接钱包" transform="translate(-896.000000, -226.000000)" fill="#222222" fill-rule="nonzero">
            <g id="编组-2" transform="translate(470.000000, 193.000000)">
                <g id="编组-24" transform="translate(155.000000, 33.000000)">
                    <g id="关--闭" transform="translate(271.000000, 0.000000)">
                        <rect id="矩形" opacity="0" x="0" y="0" width="24" height="24"></rect>
                        <path d="M20.68032,4.97868 C21.04872,4.6104 21.04872,4.00308 20.68032,3.63468 L20.6406,3.59484 C20.2722,3.22656 19.665,3.22656 19.29648,3.59484 L11.99928,10.90212 L4.70196,3.59484 C4.33356,3.22656 3.72624,3.22656 3.35796,3.59484 L3.31812,3.63468 C3.13675453,3.8112223 3.03444907,4.05357801 3.03444907,4.30668 C3.03444907,4.55978199 3.13675453,4.8021377 3.31812,4.97868 L10.61544,12.276 L3.31812,19.57344 C2.94984,19.94172 2.94984,20.54916 3.31812,20.91732 L3.35796,20.95716 C3.72624,21.32556 4.33356,21.32556 4.70196,20.95716 L11.99928,13.65984 L19.29648,20.95716 C19.665,21.32556 20.2722,21.32556 20.6406,20.95716 L20.68032,20.91732 C21.04872,20.54916 21.04872,19.94172 20.68032,19.57344 L13.38312,12.276 L20.68032,4.97868 Z" id="路径"></path>
                    </g>
                </g>
            </g>
        </g>
    </g>
</svg>