<?xml version="1.0" encoding="UTF-8"?>
<svg width="150px" height="44px" viewBox="0 0 150 44" version="1.1" xmlns="http://www.w3.org/2000/svg" xmlns:xlink="http://www.w3.org/1999/xlink">
    <title>编组 11</title>
    <defs>
        <polygon id="path-1" points="0 0 13.2769679 0 13.2769679 16.4936767 0 16.4936767"></polygon>
        <polygon id="path-3" points="0 0 2.59352297 0 2.59352297 12.8874428 0 12.8874428"></polygon>
        <polygon id="path-5" points="0 0 14.0678787 0 14.0678787 16.4956985 0 16.4956985"></polygon>
        <polygon id="path-7" points="0 0 4.7620698 0 4.7620698 3.37533645 0 3.37533645"></polygon>
        <polygon id="path-9" points="0 0 13.6410575 0 13.6410575 16.4956985 0 16.4956985"></polygon>
        <polygon id="path-11" points="0 0 17.1614097 0 17.1614097 16.5926243 0 16.5926243"></polygon>
    </defs>
    <g id="首页" stroke="none" stroke-width="1" fill="none" fill-rule="evenodd">
        <g id="画板" transform="translate(-2657.000000, -1004.000000)">
            <g id="编组-11" transform="translate(2657.000000, 1004.000000)">
                <rect id="矩形" x="0" y="0" width="150" height="44"></rect>
                <g id="编组-3" transform="translate(0.000000, 4.740689)">
                    <g id="编组-2">
                        <polygon id="Fill-1" fill="#FFFFFF" points="73.2982934 20.1654168 73.2982934 29.7605815 73.2982934 33.2593113 75.7015222 31.1603129 75.7015222 29.7605815 75.7015222 20.1654168 75.7015222 18.7668828 73.2982934 16.666687"></polygon>
                        <polygon id="Fill-2" fill="#FFFFFF" points="49.2660056 16.666687 49.2660056 33.2593113 51.5639456 33.2593113 51.5639456 19.1644113 56.4756919 19.1644113 56.4756919 16.666687"></polygon>
                        <polygon id="Fill-3" fill="#FFFFFF" points="44.459548 19.0370619 48.0643912 19.0370619 48.0643912 16.666687 44.459548 16.666687"></polygon>
                        <polygon id="Fill-4" fill="#FFFFFF" points="96.1289668 16.666687 96.1289668 33.2593113 98.4274431 33.2593113 98.4274431 19.1644113 103.338653 19.1644113 103.338653 16.666687"></polygon>
                        <polygon id="Fill-5" fill="#FFFFFF" points="88.9192805 19.0370619 92.5241236 19.0370619 92.5241236 16.666687 88.9192805 16.666687"></polygon>
                        <polygon id="Fill-6" fill="#FFFFFF" points="142.715867 16.666687 142.715867 27.3391144 130.987073 16.666687 130.975784 20.1307017 145.395157 33.2593113 145.395157 16.666687"></polygon>
                        <polygon id="Fill-7" fill="#FFFFFF" points="132.177399 33.2593113 134.580627 33.2593113 134.580627 25.3022133 132.177399 22.5926243"></polygon>
                        <g id="编组" transform="translate(57.677306, 16.666687)">
                            <g transform="translate(0.000062, 0.098948)">
                                <mask id="mask-2" fill="white">
                                    <use xlink:href="#path-1"></use>
                                </mask>
                                <g id="Clip-9"></g>
                                <path d="M13.2769679,5.46352224 C13.2769679,2.68419018 11.2904659,0.348457121 8.50936301,0.0136766447 L8.34392367,0 L0,0 L2.13779603,2.50758307 L2.84875466,2.50758307 C2.84813964,2.50877235 2.84752463,2.50936698 2.84690961,2.51055626 L7.88819673,2.50758307 L8.11206259,2.50758307 C9.58195111,2.67943309 10.6102581,3.99476952 10.6102581,5.46352224 C10.6102581,6.9233554 9.4823185,8.1263055 8.02350027,8.3076697 L5.09356349,8.27258613 L9.9325103,16.4940335 L13.0241963,16.4940335 L9.52106452,10.6005889 C11.7086768,9.85194127 13.2769679,7.8349335 13.2769679,5.46352224" id="Fill-8" fill="#FFFFFF" mask="url(#mask-2)"></path>
                            </g>
                            <g transform="translate(0.000000, 3.705181)">
                                <mask id="mask-4" fill="white">
                                    <use xlink:href="#path-3"></use>
                                </mask>
                                <g id="Clip-11"></g>
                                <polygon id="Fill-10" fill="#FFFFFF" mask="url(#mask-4)" points="2.59352297 2.06695726 2.59352297 12.8875618 0 12.8875618 0 0"></polygon>
                            </g>
                            <g transform="translate(17.785159, 0.096926)">
                                <mask id="mask-6" fill="white">
                                    <use xlink:href="#path-5"></use>
                                </mask>
                                <g id="Clip-13"></g>
                                <polygon id="Fill-12" fill="#FFFFFF" mask="url(#mask-6)" points="14.0678787 10.7534106 9.99278188 3.12957309 8.42080068 0 6.96567255 2.8691222 5.97119149 4.81061111 1.59535181 13.3501891 0 16.4643017 2.87827543 16.4958174 3.9188827 14.4633491 8.29472238 5.92377106 8.43125596 5.65856308 11.1902183 10.7855209"></polygon>
                            </g>
                            <g transform="translate(30.032529, 13.217288)">
                                <mask id="mask-8" fill="white">
                                    <use xlink:href="#path-7"></use>
                                </mask>
                                <g id="Clip-15"></g>
                                <polygon id="Fill-14" fill="#FFFFFF" mask="url(#mask-8)" points="2.95146235 0 4.7620698 3.34364231 1.88440938 3.37575269 0 0.0291371996"></polygon>
                            </g>
                            <g transform="translate(40.038349, 0.096926)">
                                <mask id="mask-10" fill="white">
                                    <use xlink:href="#path-9"></use>
                                </mask>
                                <g id="Clip-17"></g>
                                <polygon id="Fill-16" fill="#FFFFFF" mask="url(#mask-10)" points="11.0050984 0 11.0050984 6.99411717 2.13718101 6.99411717 0 9.49872706 0 16.4958174 2.59352297 16.4958174 2.59352297 9.50170024 11.0050984 9.50170024 11.0050984 16.4958174 13.6410575 16.4958174 13.6410575 9.50170024 13.6410575 6.99411717 13.6410575 0"></polygon>
                            </g>
                            <g transform="translate(54.935454, 0.000000)">
                                <mask id="mask-12" fill="white">
                                    <use xlink:href="#path-11"></use>
                                </mask>
                                <g id="Clip-19"></g>
                                <path d="M8.58070487,13.9733684 C5.3383399,13.9733684 2.70853098,11.4318911 2.70853098,8.2963716 C2.70853098,5.16085214 5.3383399,2.61878014 8.58070487,2.61878014 C11.8236849,2.61878014 14.4528788,5.16085214 14.4528788,8.2963716 C14.4528788,11.4318911 11.8236849,13.9733684 8.58070487,13.9733684 M8.58070487,0 C3.84139067,0 0,3.71410099 0,8.2963716 C0,12.8780476 3.84139067,16.5927432 8.58070487,16.5927432 C13.3194041,16.5927432 17.1614097,12.8780476 17.1614097,8.2963716 C17.1614097,3.71410099 13.3194041,0 8.58070487,0" id="Fill-18" fill="#FFFFFF" mask="url(#mask-12)"></path>
                            </g>
                        </g>
                        <text id="A-Decentralized-Battleground-for" font-family="Poppins-Medium, Poppins" font-size="4" font-weight="400" fill="#FFFFFF">
                            <tspan x="44.2579336" y="4">A Decentralized Battleground for</tspan>
                        </text>
                        <polygon id="Fill-22" fill="#FFFFFF" points="27.7054972 13.2541106 25.4490338 12.0206133 25.4883835 14.4039085"></polygon>
                        <polygon id="Fill-24" fill="#FFFFFF" points="32.5881889 14.4598711 30.3311106 13.2257628 30.3710752 15.609058"></polygon>
                        <polygon id="Fill-26" fill="#FFFFFF" points="36.8878276 15.6740015 34.6313642 14.4405041 34.670714 16.8231884"></polygon>
                        <path d="M15.3440127,4.81281001 L16.9192332,9.57023633 L4.93968738,12.865672 L5.14012527,9.83844105 L9.33456489,6.99815918 L15.3440127,4.81281001 Z M8.62694534,8.26874085 C8.06006271,8.26874085 7.59893258,8.72694937 7.59893258,9.28962943 L7.59893258,10.2280405 C7.59893258,10.7913315 8.06006271,11.24954 8.62694534,11.24954 C9.19321313,11.24954 9.65434326,10.7913315 9.65434326,10.2280405 L9.65434326,9.28962943 C9.65434326,8.72694937 9.19321313,8.26874085 8.62694534,8.26874085 Z M12.4690201,6.54245553 C11.8302011,6.54245553 11.3106612,7.05870379 11.3106612,7.69347533 L11.3106612,8.79195389 C11.3106612,9.42672542 11.8302011,9.94297369 12.4690201,9.94297369 C13.107839,9.94297369 13.6273789,9.42672542 13.6273789,8.79195389 L13.6273789,7.69347533 C13.6273789,7.05870379 13.107839,6.54245553 12.4690201,6.54245553 Z" id="形状结合" fill="#FFFFFF"></path>
                        <path d="M4.9157701,16.7282476 C4.9157701,16.3506838 5.2250347,16.0439896 5.60500592,16.0439896 C5.98436231,16.0439896 6.29362691,16.3506838 6.29362691,16.7282476 L6.29362691,19.07733 L8.90239373,18.5091514 L8.89071177,18.2904332 C8.89071177,18.2751596 8.88886725,18.2611079 8.88702273,18.2604969 L8.88702273,15.7873928 C8.88702273,15.2387645 9.33647089,14.791553 9.88982704,14.791553 C10.4413387,14.791553 10.8907868,15.2387645 10.8907868,15.7873928 L10.8907868,18.0759916 L13.698147,17.464436 L13.6508043,17.2176143 C13.6342037,17.1351368 13.6274404,17.0599906 13.6274404,16.989121 L13.6274404,14.581388 C13.6274404,13.9197349 14.1684998,13.3814926 14.8343717,13.3814926 C15.5002436,13.3814926 16.0413029,13.9197349 16.0413029,14.581388 L16.0413029,16.9542972 L19.8785204,16.1191358 L17.8249542,10.8283547 L3.04604115,14.6858595 L2.79334184,19.8397889 L4.9157701,19.3773038 L4.9157701,16.7282476 Z" id="Fill-36" fill="#FFFFFF"></path>
                        <path d="M4.39500048,16.7282476 L4.39500048,18.9612505 L3.34608315,19.1891328 L3.54713589,15.089694 L17.506467,11.4460198 L19.1739136,15.7427938 L16.5620725,16.3115833 L16.5620725,14.581388 C16.5620725,13.6350347 15.7867591,12.8646334 14.8343717,12.8646334 C13.8819842,12.8646334 13.1066708,13.6350347 13.1066708,14.581388 L13.1066708,16.989121 C13.1066708,17.0141697 13.1072856,17.0386075 13.1085153,17.0636563 L11.4115565,17.4332778 L11.4115565,15.7873928 C11.4115565,14.9534533 10.728469,14.2740828 9.8892122,14.2740828 C9.04872569,14.2740828 8.36625311,14.9534533 8.36625311,15.7873928 L8.36625311,18.0961528 L6.81439653,18.4346162 L6.81439653,16.7282476 C6.81439653,16.0659836 6.2721075,15.5265194 5.60500592,15.5265194 C4.93790434,15.5265194 4.39500048,16.0659836 4.39500048,16.7282476 L4.39500048,16.7282476 Z" id="路径" fill="#FFFFFF"></path>
                        <path d="M26.1442335,23.5788316 L26.1442335,20.3903112 C26.1442335,19.7292691 26.6852929,19.1910268 27.3511648,19.1910268 C28.0170367,19.1910268 28.5587109,19.7292691 28.5587109,20.3903112 L28.5587109,23.7633369 C28.5587109,23.8849148 28.535347,24.0113804 28.4873894,24.1506758 L28.3871705,24.4396526 L30.6596197,24.8178274 L30.6596197,21.4356376 C30.6596197,20.8870092 31.1090679,20.4397977 31.6618092,20.4397977 C32.2139357,20.4397977 32.6633838,20.8870092 32.6633838,21.4356376 L32.6633838,24.7744503 C32.6633838,24.8056085 32.6584651,24.8349338 32.6541612,24.8648701 L32.6172708,25.1434609 L34.7649075,25.5008636 L34.7649075,22.6410315 C34.7649075,22.2634676 35.0741721,21.9567734 35.4535285,21.9567734 C35.8328849,21.9567734 36.1421495,22.2634676 36.1421495,22.6410315 L36.1421495,25.7299678 L38.2153905,26.0751516 L37.8354193,20.0103036 L25.4261002,16.2652126 L22.4355177,19.4464017 L23.2483364,22.1534976 L26.1442335,23.5788316 Z" id="Fill-38" fill="#FFFFFF"></path>
                        <path d="M25.5853438,16.8535524 L37.3380136,20.4013082 L37.6552711,25.4574865 L36.6629191,25.2925314 L36.6629191,22.6410315 C36.6629191,21.9787674 36.1200152,21.4393032 35.4535285,21.4393032 C34.7864269,21.4393032 34.2441379,21.9787674 34.2441379,22.6410315 L34.2441379,24.8899189 L33.1835386,24.7133559 L33.1835386,21.4356376 C33.1835386,20.6016981 32.501066,19.9223276 31.6618092,19.9223276 C30.8225524,19.9223276 30.1388501,20.6016981 30.1388501,21.4356376 L30.1388501,24.2062718 L29.0567314,24.0260431 C29.0721024,23.9374561 29.0794805,23.850091 29.0794805,23.7633369 L29.0794805,20.3903112 C29.0794805,19.4439579 28.3041671,18.6735566 27.3511648,18.6735566 C26.3987774,18.6735566 25.6234639,19.4439579 25.6234639,20.3903112 L25.6234639,22.745503 L23.6824135,21.7899855 L23.0196158,19.5832533 L25.5853438,16.8535524 Z M3.8313765,23.5417472 C3.8313765,23.1641834 4.1406411,22.8574892 4.51999748,22.8574892 C4.8999687,22.8574892 5.20861847,23.1641834 5.20861847,23.5417472 L5.20861847,25.8010207 L7.326128,25.5254846 L7.326128,22.8489359 C7.326128,22.2996967 7.776191,21.8530961 8.32831747,21.8530961 C8.88105878,21.8530961 9.33050694,22.2996967 9.33050694,22.8489359 L9.33050694,25.2640003 L11.7203907,24.9536404 L11.7203907,21.7467917 C11.7203907,21.0857496 12.2620649,20.5481182 12.9279368,20.5481182 C13.5931938,20.5481182 14.1342532,21.0857496 14.1342532,21.7467917 L14.1342532,24.6390039 L16.5247517,24.3274221 L16.5247517,20.8126573 C16.5247517,20.1283992 17.0848711,19.5718286 17.7734921,19.5718286 L17.885393,19.5718286 C18.574014,19.5718286 19.1341334,20.1283992 19.1341334,20.8126573 L19.1341334,23.9871259 L22.4253728,23.5588537 L20.0459414,16.9209396 L1.96902563,20.6788604 L1.6425455,26.2659496 L3.8313765,25.9806384 L3.8313765,23.5417472 Z" id="Fill-40" fill="#FFFFFF"></path>
                        <path d="M3.31060687,23.5417472 L3.31060687,25.5267065 L2.19836101,25.6715004 L2.46581649,21.1046888 L19.7077793,17.5196654 L21.7189215,23.1293595 L19.654903,23.3981752 L19.654903,20.8126573 C19.654903,19.843088 18.8611444,19.0543585 17.885393,19.0543585 L17.7734921,19.0543585 C16.7983556,19.0543585 16.0045969,19.843088 16.0045969,20.8126573 L16.0045969,23.8734902 L14.6550228,24.0494423 L14.6550228,21.7467917 C14.6550228,20.8010493 13.8797093,20.0306481 12.9279368,20.0306481 C11.9749345,20.0306481 11.199621,20.8010493 11.199621,21.7467917 L11.199621,24.4990975 L9.85127656,24.6744387 L9.85127656,22.8489359 C9.85127656,22.0143855 9.1675743,21.3362369 8.32831747,21.3362369 C7.48906064,21.3362369 6.80597322,22.0143855 6.80597322,22.8489359 L6.80597322,25.0715527 L5.72938809,25.2114591 L5.72938809,23.5417472 C5.72938809,22.8788722 5.18648422,22.340019 4.51999748,22.340019 C3.8528959,22.340019 3.31060687,22.8788722 3.31060687,23.5417472 L3.31060687,23.5417472 Z" id="路径" fill="#FFFFFF"></path>
                        <g id="编组" transform="translate(0.000000, 24.663747)" fill="#FFFFFF">
                            <path d="M37.2470173,8.07852167 L37.2470173,5.95793264 C37.2470173,5.58036882 37.555667,5.27306364 37.9356383,5.27306364 C38.3149946,5.27306364 38.6242592,5.58036882 38.6242592,5.95793264 L38.6242592,8.07852167 L37.2470173,8.07852167 Z M32.7937299,8.07852167 L32.7937299,5.25840097 C32.7937299,4.70916169 33.2425633,4.26256112 33.7959194,4.26256112 C34.3480459,4.26256112 34.7968792,4.70916169 34.7968792,5.25840097 L34.7968792,8.07852167 L32.7937299,8.07852167 Z M21.1541908,8.07852167 L21.1541908,3.96442011 C21.1541908,3.1017662 21.8594124,2.4004017 22.7275667,2.4004017 C23.5957211,2.4004017 24.3015576,3.1017662 24.3015576,3.96442011 L24.3015576,8.07852167 L21.1541908,8.07852167 Z M15.583124,8.07852167 L15.583124,4.32548842 C15.583124,3.64123037 16.1438582,3.08465975 16.8324792,3.08465975 L16.9443801,3.08465975 C17.6323863,3.08465975 18.1931205,3.64123037 18.1931205,4.32548842 L18.1931205,8.07852167 L15.583124,8.07852167 Z M10.494092,8.07852167 L10.494092,5.01402309 C10.494092,4.35236999 11.0357661,3.81473866 11.701638,3.81473866 C12.3668951,3.81473866 12.9085693,4.35236999 12.9085693,5.01402309 L12.9067248,8.07852167 L10.494092,8.07852167 Z M5.81515829,8.07852167 L5.81515829,5.55532009 C5.81515829,5.00669175 6.26460645,4.55948024 6.81734776,4.55948024 C7.36947423,4.55948024 7.81953723,5.00669175 7.81953723,5.55532009 L7.81953723,8.07852167 L5.81515829,8.07852167 Z M2.31979195,8.07852167 L2.31979195,5.67750903 C2.31979195,5.29994521 2.62905655,4.99264003 3.00841293,4.99264003 C3.38838416,4.99264003 3.69764876,5.29994521 3.69764876,5.67750903 L3.69764876,8.07852167 L2.31979195,8.07852167 Z M40.271416,2.89648879 L28.0600755,1.20172821 L30.0890481,8.07852167 L28.8286257,8.07852167 L26.9970169,1.70697947 L23.457382,0 L0.379356383,2.54275181 L0,8.59599182 L0.288360038,8.59599182 L2.31979195,8.59599182 L3.69764876,8.59599182 L5.81515829,8.59599182 L7.81953723,8.59599182 L10.5174559,8.59599182 L12.8852054,8.59599182 L15.6163254,8.59599182 L18.1586895,8.59599182 L21.1541908,8.59599182 L24.3015576,8.59599182 L28.977417,8.59599182 L30.2415284,8.59599182 L32.7937299,8.59599182 L34.7968792,8.59599182 L37.2470173,8.59599182 L38.6242592,8.59599182 L39.8809925,8.59599182 L40.6286382,8.59599182 L40.271416,2.89648879 Z" id="Fill-42"></path>
                            <path d="M24.8223272,8.07852167 L24.8223272,3.96442011 C24.8223272,2.81706598 23.8822366,1.88293154 22.7275667,1.88293154 C21.5728969,1.88293154 20.6334211,2.81706598 20.6334211,3.96442011 L20.6334211,8.07852167 L18.7132753,8.07852167 L18.7132753,4.32548842 C18.7132753,3.35653014 17.9201315,2.5671896 16.9443801,2.5671896 L16.8324792,2.5671896 C15.8567279,2.5671896 15.0629692,3.35653014 15.0629692,4.32548842 L15.0629692,8.07852167 L13.4293389,8.07852167 L13.4293389,5.01402309 C13.4293389,4.06766976 12.6540255,3.29787945 11.701638,3.29787945 C10.7486358,3.29787945 9.97332234,4.06766976 9.97332234,5.01402309 L9.97332234,8.07852167 L8.33969201,8.07852167 L8.33969201,5.55532009 C8.33969201,4.72138058 7.65660459,4.04262103 6.81734776,4.04262103 C5.9774761,4.04262103 5.29438867,4.72138058 5.29438867,5.55532009 L5.29438867,8.07852167 L4.21841838,8.07852167 L4.21841838,5.67750903 C4.21841838,5.01463403 3.67551451,4.47639176 3.00841293,4.47639176 C2.34131135,4.47639176 1.79902233,5.01463403 1.79902233,5.67750903 L1.79902233,8.07852167 L0.55397099,8.07852167 L0.871843356,3.00951355 L23.3657708,0.530910938 L26.5598655,2.07171345 L28.2875664,8.07852167 L24.8223272,8.07852167 Z M39.8809925,8.07852167 L39.1450289,8.07852167 L39.1450289,5.95793264 C39.1450289,5.29505765 38.602125,4.75620443 37.9356383,4.75620443 C37.2685367,4.75620443 36.7262476,5.29505765 36.7262476,5.95793264 L36.7262476,8.07852167 L35.3176488,8.07852167 L35.3176488,5.25840097 C35.3176488,4.42446146 34.6351762,3.74509096 33.7959194,3.74509096 C32.9560477,3.74509096 32.2729603,4.42446146 32.2729603,5.25840097 L32.2729603,8.07852167 L30.6313371,8.07852167 L28.7868166,1.8248918 L39.7783142,3.34980975 L40.0740524,8.07852167 L39.8809925,8.07852167 Z" id="路径-2"></path>
                        </g>
                        <text id="Decentralized-Infrastructures-and-Applications" font-family="Poppins-Medium, Poppins" font-size="4" font-weight="400" fill="#FFFFFF">
                            <tspan x="44.2579336" y="9.90002441">Decentralized Infrastructures and Applications</tspan>
                        </text>
                    </g>
                    <polygon id="Fill-20" fill="#FFFFFF" points="14.1586008 2.49280864 11.9027523 1.2593113 11.942102 3.6419956"></polygon>
                    <polygon id="Fill-28" fill="#FFFFFF" points="9.02308686 4.99505481 6.76662345 3.76094653 6.80597322 6.14424178"></polygon>
                </g>
            </g>
        </g>
    </g>
</svg>